<svg width="30" height="30" viewBox="0 0 30 30" fill="none" xmlns="http://www.w3.org/2000/svg">
<path d="M20.4429 0.592107C20.4033 0.533902 20.3526 0.484069 20.2937 0.445456C20.2349 0.406844 20.169 0.380209 20.0998 0.367075C20.0307 0.35394 19.9596 0.354563 19.8907 0.368909C19.8218 0.383254 19.7564 0.41104 19.6982 0.450679L15.2336 3.48604C15.1616 3.53522 15.1027 3.60123 15.0619 3.67834C15.0212 3.75545 15 3.84134 15 3.92854V9.82032H16.0714V4.21246L20.3014 1.33568C20.4187 1.25574 20.4994 1.13255 20.5259 0.993145C20.5525 0.853739 20.5226 0.709507 20.4429 0.592107ZM18.75 29.6428H11.25C11.1209 29.6428 10.9962 29.5962 10.8988 29.5115C10.8013 29.4269 10.7377 29.3099 10.7196 29.1821L8.57679 14.1821C8.56568 14.1064 8.57113 14.0291 8.59277 13.9557C8.61441 13.8822 8.65173 13.8144 8.70214 13.7568C8.75222 13.6984 8.81436 13.6516 8.88429 13.6196C8.95421 13.5876 9.03025 13.5711 9.10714 13.5714H20.8929C21.0482 13.5714 21.1961 13.6378 21.2979 13.7568C21.3482 13.8144 21.3855 13.8823 21.4071 13.9557C21.4288 14.0291 21.4343 14.1064 21.4232 14.1821L19.2804 29.1821C19.2623 29.3099 19.1987 29.4269 19.1012 29.5115C19.0038 29.5962 18.8791 29.6428 18.75 29.6428ZM11.715 28.5714H18.2861L20.2757 14.6428H9.72536L11.715 28.5714Z" fill="#121212" stroke="#121212" stroke-width="0.5"/>
<path d="M23.0357 14.6429H6.96427C6.82219 14.6429 6.68593 14.5864 6.58547 14.486C6.485 14.3855 6.42856 14.2492 6.42856 14.1072C6.42856 12.62 7.61999 11.4286 9.0857 11.4286H20.9143C21.6188 11.4292 22.2943 11.7093 22.7925 12.2075C23.2907 12.7057 23.5708 13.3812 23.5714 14.0857C23.5714 14.3825 23.3314 14.6429 23.0357 14.6429ZM7.5857 13.5714H22.4143C22.2 12.9489 21.6086 12.5 20.9143 12.5H9.0857C8.39141 12.5 7.79999 12.9489 7.5857 13.5714Z" fill="#121212" stroke="#121212" stroke-width="0.5"/>
<path d="M20.5704 12.5001H9.85609C9.71401 12.5001 9.57775 12.4436 9.47728 12.3431C9.37681 12.2427 9.32037 12.1064 9.32037 11.9643C9.32037 10.4772 10.5118 9.28577 11.9775 9.28577H18.4489C19.1535 9.28633 19.829 9.56646 20.3272 10.0647C20.8254 10.5628 21.1055 11.2384 21.1061 11.9429C21.1061 12.2397 20.8661 12.5001 20.5704 12.5001ZM10.4775 11.4286H19.9489C19.7347 10.8061 19.1432 10.3572 18.4489 10.3572H11.9775C11.2832 10.3572 10.6918 10.8061 10.4775 11.4286ZM15.0664 22.084C13.2889 22.084 11.8436 20.6386 11.8436 18.8611C11.8436 17.0836 13.29 15.6383 15.0664 15.6383C16.8429 15.6383 18.2893 17.0836 18.2893 18.8611C18.2893 20.6386 16.8439 22.084 15.0664 22.084ZM15.0664 16.5929C13.8161 16.5929 12.7982 17.6108 12.7982 18.8611C12.7982 20.1115 13.8161 21.1293 15.0664 21.1293C16.3168 21.1293 17.3347 20.1115 17.3347 18.8611C17.3347 17.6108 16.3168 16.5929 15.0664 16.5929Z" fill="#121212" stroke="#121212" stroke-width="0.5"/>
</svg>
