<svg width="30" height="30" viewBox="0 0 30 30" fill="none" xmlns="http://www.w3.org/2000/svg">
<g clip-path="url(#clip0_3_120)">
<g clip-path="url(#clip1_3_120)">
<path d="M9.66231 14.4539L13.0097 25.9776C13.0972 26.2787 13.2802 26.5433 13.531 26.7315C13.7817 26.9197 14.0869 27.0215 14.4004 27.0215H15.5568C15.8696 27.0217 16.174 26.9205 16.4245 26.7331C16.6749 26.5458 16.858 26.2824 16.9462 25.9823L20.3376 14.4539" stroke="#121212" stroke-width="1.3" stroke-miterlimit="2" stroke-linecap="round" stroke-linejoin="round"/>
<path d="M14.0625 10.7812H18.0469M9.84375 14.5312V14.498C9.47462 14.4276 9.13521 14.2478 8.86969 13.9819C8.69546 13.8079 8.55726 13.6012 8.46299 13.3738C8.36872 13.1463 8.32024 12.9025 8.32031 12.6562C8.32031 12.1589 8.51766 11.6822 8.86969 11.3306C9.04368 11.1564 9.25032 11.0182 9.47779 10.9239C9.70526 10.8297 9.94908 10.7812 10.1953 10.7812H12.1875V10.7405C11.8539 10.6614 11.5568 10.4721 11.3442 10.2032C11.1315 9.9343 11.0158 9.60156 11.0156 9.25875V9.25687C11.0159 8.85316 11.1764 8.46605 11.4618 8.18058C11.7473 7.89511 12.1344 7.73462 12.5381 7.73438H17.4619C17.8656 7.73462 18.2527 7.89511 18.5382 8.18058C18.8236 8.46605 18.9841 8.85316 18.9844 9.25687V9.25875C18.9842 9.60156 18.8685 9.9343 18.6558 10.2032C18.4432 10.4721 18.1461 10.6614 17.8125 10.7405V10.7812H19.8047C20.302 10.7812 20.7787 10.9786 21.1303 11.3306C21.3045 11.5046 21.4427 11.7113 21.537 11.9387C21.6313 12.1662 21.6798 12.41 21.6797 12.6562C21.6798 12.9025 21.6313 13.1463 21.537 13.3738C21.4427 13.6012 21.3045 13.8079 21.1303 13.9819C20.8648 14.2478 20.5254 14.4276 20.1562 14.498H19.6313C19.211 14.498 18.8081 14.6649 18.5109 14.962C18.2138 15.2591 18.0469 15.6621 18.0469 16.0823V16.673C18.0469 16.937 17.942 17.1903 17.7553 17.377C17.5685 17.5637 17.3153 17.6686 17.0512 17.6686H17.0503C16.7863 17.6686 16.533 17.5637 16.3463 17.377C16.1596 17.1903 16.0547 16.937 16.0547 16.673V16.0823C16.0547 15.6621 15.8878 15.2591 15.5906 14.962C15.2935 14.6649 14.8905 14.498 14.4703 14.498H9.84375V14.5312Z" stroke="#121212" stroke-width="1.3" stroke-miterlimit="2" stroke-linecap="round" stroke-linejoin="round"/>
<path d="M15 7.73438C15.9061 7.73438 16.6406 6.99984 16.6406 6.09375C16.6406 5.18766 15.9061 4.45312 15 4.45312C14.0939 4.45312 13.3594 5.18766 13.3594 6.09375C13.3594 6.99984 14.0939 7.73438 15 7.73438Z" stroke="#121212" stroke-width="1.3" stroke-miterlimit="2" stroke-linecap="round" stroke-linejoin="round"/>
<path d="M15 4.45312L15.2344 3.28125" stroke="#121212" stroke-width="1.3" stroke-miterlimit="2" stroke-linecap="round" stroke-linejoin="round"/>
</g>
</g>
<defs>
<clipPath id="clip0_3_120">
<rect width="30" height="30" fill="white"/>
</clipPath>
<clipPath id="clip1_3_120">
<rect width="30" height="30" fill="white"/>
</clipPath>
</defs>
</svg>
