<svg width="30" height="30" viewBox="0 0 30 30" fill="none" xmlns="http://www.w3.org/2000/svg">
<path d="M26.5 14.9999L23.032 13.2656C23.3311 12.8672 23.5 12.4433 23.5 11.9999C23.5 8.1347 19.4695 5 14.5 5C9.5293 5 5.5 8.1347 5.5 11.9999C5.5 12.4433 5.668 12.8672 5.968 13.2656L2.5 14.9999V15.9998L5.746 17.6228C5.5897 18.0665 5.4979 18.5252 5.4979 18.9998H5.5C5.5 22.3133 9.5293 24.9998 14.5 24.9998C19.4707 24.9998 23.5 22.3133 23.5 18.9998C23.5 18.5252 23.4082 18.0665 23.2519 17.624L26.5 15.9998V14.9999ZM14.5 6.9998C18.2938 6.9998 21.4999 9.2891 21.4999 11.9999C21.3232 12.5213 18.8935 14 14.5 14C10.1074 14 7.6777 12.5213 7.495 11.9588C7.5001 9.2891 10.7053 6.9998 14.5 6.9998ZM14.5 23C10.375 23 7.5001 20.8916 7.5001 18.9998C7.5001 18.8369 7.5214 18.6797 7.5565 18.5282L14.5 21.9998L21.4354 18.5321C21.4735 18.689 21.4999 18.8456 21.4999 19.001C21.4999 20.8916 18.625 23 14.5 23ZM14.5 19.7636L5.9725 15.5L7.7206 14.6249C9.3709 15.4667 11.7928 15.9998 14.5 15.9998C17.2072 15.9998 19.6291 15.4667 21.2794 14.6249L23.0284 15.5L14.5 19.7636Z" fill="#121212"/>
<path d="M10.9999 11.001C11.5521 11.001 11.9998 10.5533 11.9998 10.0011C11.9998 9.44889 11.5521 9.00122 10.9999 9.00122C10.4477 9.00122 10 9.44889 10 10.0011C10 10.5533 10.4477 11.001 10.9999 11.001Z" fill="#121212"/>
<path d="M15.0001 9.9998C15.5524 9.9998 16 9.55213 16 8.9999C16 8.44767 15.5524 8 15.0001 8C14.4479 8 14.0002 8.44767 14.0002 8.9999C14.0002 9.55213 14.4479 9.9998 15.0001 9.9998Z" fill="#121212"/>
<path d="M14.5 12.9998C15.0522 12.9998 15.4999 12.5521 15.4999 11.9999C15.4999 11.4477 15.0522 11 14.5 11C13.9477 11 13.5001 11.4477 13.5001 11.9999C13.5001 12.5521 13.9477 12.9998 14.5 12.9998Z" fill="#121212"/>
<path d="M18.4999 11.4998C19.0521 11.4998 19.4998 11.0521 19.4998 10.4999C19.4998 9.94767 19.0521 9.5 18.4999 9.5C17.9477 9.5 17.5 9.94767 17.5 10.4999C17.5 11.0521 17.9477 11.4998 18.4999 11.4998Z" fill="#121212"/>
</svg>
