<svg width="25" height="21" viewBox="0 0 25 21" fill="none" xmlns="http://www.w3.org/2000/svg">
<g clip-path="url(#clip0_100_2427)">
<path d="M10.2302 1.18176V19.5151" stroke="black" stroke-width="2" stroke-linecap="round" stroke-linejoin="round"/>
<path d="M14.3968 4.18176H8.14683C7.37328 4.18176 6.63142 4.48905 6.08444 5.03603C5.53745 5.58302 5.23016 6.32488 5.23016 7.09843C5.23016 7.87198 5.53745 8.61384 6.08444 9.16082C6.63142 9.70781 7.37328 10.0151 8.14683 10.0151H12.3135C13.087 10.0151 13.8289 10.3224 14.3759 10.8694C14.9229 11.4164 15.2302 12.1582 15.2302 12.9318C15.2302 13.7053 14.9229 14.4472 14.3759 14.9942C13.8289 15.5411 13.087 15.8484 12.3135 15.8484H5.23016" stroke="black" stroke-width="2" stroke-linecap="round" stroke-linejoin="round"/>
</g>
<defs>
<clipPath id="clip0_100_2427">
<rect width="24" height="20" fill="white" transform="translate(0.230164 0.181763)"/>
</clipPath>
</defs>
</svg>
